<svg xmlns="http://www.w3.org/2000/svg" viewBox="0 0 1920 1920"><title>AnonypussOverlay</title><path d="M1070.294,662.075l1.6-.662,1.852-.785,1.814-.925c1.429-.758,3.515-1.94,5.758-3.424,2.287-1.44,4.857-3.282,7.631-5.4,5.555-4.237,12.113-9.462,19.291-15.233,3.608-2.861,7.427-5.8,11.588-8.648,2.037-1.444,4.263-2.809,6.483-4.178a54.019,54.019,0,0,1,7.906-3.935,20.266,20.266,0,0,1,5.929-1.206,13.474,13.474,0,0,1,13.466,8.858,20.621,20.621,0,0,1,1.3,5.734,39.744,39.744,0,0,1-.313,8.89c-0.192,1.375-.371,2.538-0.665,3.967-0.221,1.1-.453,2.223-0.774,3.511-1.171,4.848-2.287,8.99-3.425,13.062l-3.165,11.226c-1.914,6.878-3.288,12.622-3.992,16.328-0.354,1.865-.509,3.157-0.582,3.908l-0.028.833-0.026.778a9.487,9.487,0,1,1-18.963-.646c0.007-.219.025-0.459,0.047-0.674l0.276-2.609c0.236-1.48.634-3.45,1.214-5.688,1.131-4.508,3.083-10.324,5.312-17.262l3.561-11.072c1.21-3.851,2.572-8.068,3.569-11.972,0.245-.895.489-1.994,0.732-3.136,0.184-.809.376-1.924,0.513-2.844a24.267,24.267,0,0,0,.309-5.134c0.012-1.478-.8-1.594.773-0.227a2.448,2.448,0,0,0,1.41.487,4.395,4.395,0,0,0-1.1.256,32.148,32.148,0,0,0-4.929,2.56c-1.835,1.178-3.67,2.321-5.477,3.643-3.624,2.545-7.157,5.335-10.575,8.121-6.873,5.53-13.1,11.257-18.88,15.945-2.887,2.348-5.572,4.525-8.1,6.428-2.521,1.928-4.773,3.46-6.968,4.832l-3.093,1.807-1.907.973-1.546.774a9.482,9.482,0,0,1-8.491-16.958q0.295-.147.594-0.273Z" style="fill:#fff"/><path d="M859.893,687.27l-1.2-1.226c-0.606-.574-1.449-1.383-2.862-2.544-1.334-1.148-3.039-2.485-5.285-4.079-2.243-1.641-5.018-3.372-8.548-6.338-3.262-2.952-5.8-5.819-8.65-8.79l-8.822-9.263c-6.145-6.268-12.7-12.991-19.711-18.475-1.744-1.347-3.486-2.613-5.2-3.746l-0.161-.111c-0.109-.066.817,0.476,0.4,0.234l-0.049-.027-0.1-.054-0.195-.108a4.258,4.258,0,0,0,.483.248,4.846,4.846,0,0,0,1.479.387,4.8,4.8,0,0,0,4.222-1.832,5.106,5.106,0,0,0,.613-1.062l0.193-.563c0.058-.219.086-0.434,0.039-0.157-0.886,4.7-1.523,8.868-2.147,13.3-1.258,8.66-1.956,16.851-2.392,23.853a207.192,207.192,0,0,0-.439,23.193,9.5,9.5,0,0,1-18.962,1.066,9.6,9.6,0,0,1,0-1.054l0.014-.243s0.558-9.978,2.177-24.471c0.814-7.266,1.927-15.7,3.277-24.751,0.684-4.425,1.534-9.391,2.46-13.915l0.235-1.016a9.852,9.852,0,0,1,.473-1.4,11.223,11.223,0,0,1,1.483-2.593,11.672,11.672,0,0,1,10.442-4.546,10.81,10.81,0,0,1,3.2.8l0.9,0.411,0.2,0.1,0.646,0.367,0.21,0.136c2.285,1.44,4.43,2.945,6.494,4.48,8.105,6.212,15.438,12.653,22.108,18.876l9.472,8.948c2.959,2.822,5.813,5.547,7.917,7.341,1.961,1.641,4.743,3.443,7.228,5.188,2.519,1.747,4.839,3.507,6.686,5.067,1.787,1.528,3.276,3.035,4.251,4.045l1.164,1.261A9.476,9.476,0,0,1,859.893,687.27Z" style="fill:#fff"/><path d="M1167.734,787s-6.526.026-17.946-.324c-11.41-.308-27.758-0.832-47.288-1.244s-42.3-.714-66.731-0.684c-12.214-.056-24.833-0.038-37.648.154-12.818.12-25.84,0.245-38.848,0.619-13.016.249-26.022,0.643-38.816,1.178-12.8.4-25.375,1.157-37.554,1.746-12.164.779-23.929,1.413-35.068,2.367l-31.42,2.782-26.777,2.522c-8.056.678-15.249,1-21.243,1.2a135,135,0,0,1-14.17-.5l-5.064-.439a9.48,9.48,0,1,1,1.637-18.889q0.217,0.019.43,0.047l0.761,0.1,4.265,0.582a116.343,116.343,0,0,0,12.289,1.082c5.43,0.157,12.108.081,19.928-.37s16.735-1,26.494-1.864c19.528-1.617,42.43-3.376,66.957-5.011,12.271-.665,24.951-1.5,37.84-1.974,12.889-.613,25.982-1.077,39.075-1.4,13.095-.452,26.185-0.638,39.072-0.833,12.889-.266,25.567-0.329,37.836-0.343s24.128-.151,35.383.006l31.716,0.18c19.638,0.088,35.92.451,47.356,0.569l17.952,0.251a9.25,9.25,0,1,1-.259,18.493h-0.161Z" style="fill:#fff"/><path d="M956.113,854.49l-1.147.214a9.118,9.118,0,0,0-1.794.428,8.7,8.7,0,0,0-5.057,4.938,10.431,10.431,0,0,0-.56,5.226,12.436,12.436,0,0,0,.28,1.532c0,0.028.12,0.491,0.011,0.164l0.178,0.5,0.359,1.018a9.928,9.928,0,0,0,1.365,2.358,7.214,7.214,0,0,0,4.854,2.8,14.883,14.883,0,0,0,7.034-.74c0.3-.093,1.509-0.536,1.935-0.74,0.518-.221,1.076-0.5,1.65-0.8a15.6,15.6,0,0,0,2.9-2.017c1.658-1.49,2.293-2.961,2.249-4.116-0.028-.157,0-0.3-0.034-0.467l-0.047-.242-0.017-.121-0.007-.061c-0.026-.109.231,0.912,0.117,0.463l-0.01-.033-0.02-.066-0.318-1.056c-0.106-.3-0.1-0.01-0.1-0.066a4.632,4.632,0,0,0-1.234-1.233,14.792,14.792,0,0,0-5.171-2.219,37.225,37.225,0,0,0-10.047-.909c-2.518.087-3.96,0.3-3.96,0.3a5.343,5.343,0,0,1-1.569-10.57l0.288-.043s1.74-.263,4.835-0.387a47.626,47.626,0,0,1,13.048,1.164,25.209,25.209,0,0,1,8.977,3.967,14.7,14.7,0,0,1,4.445,4.964,15.866,15.866,0,0,1,.849,1.894l0.323,1.054,0.164,0.63,0.032,0.214,0.061,0.429,0.11,0.863a16.562,16.562,0,0,1,.051,1.775A16.237,16.237,0,0,1,975,877.3a26.028,26.028,0,0,1-5,3.278c-0.851.421-1.739,0.83-2.711,1.2-1.054.407-1.36,0.51-2.588,0.893a25.218,25.218,0,0,1-11.862.83,18.332,18.332,0,0,1-10.871-6.234,19.975,19.975,0,0,1-3.137-5.231l-0.385-1.009-0.191-.5-0.275-.861a22.642,22.642,0,0,1-.667-2.547,23.548,23.548,0,0,1,.121-10.156,21.835,21.835,0,0,1,3.794-8.138,27.239,27.239,0,0,1,5-4.943,29.014,29.014,0,0,1,4.048-2.433l1.027-.555a7.3,7.3,0,1,1,6.941,12.843A7.512,7.512,0,0,1,956.113,854.49Z" style="fill:#fff"/><path d="M961.822,966.2a6.772,6.772,0,0,1-6.657-5.584c-1.615-9.105-2.2-20.294-2.67-29.283-0.249-4.722-.481-9.179-0.785-11.035a6.769,6.769,0,0,1,13.362-2.178c0.423,2.586.65,6.964,0.941,12.505,0.449,8.619,1.01,19.347,2.48,27.622a6.763,6.763,0,0,1-5.481,7.847A6.524,6.524,0,0,1,961.822,966.2Z" style="fill:#fff"/><path d="M942.252,968.618a33.888,33.888,0,0,1-4.88-.3,6.768,6.768,0,1,1,1.988-13.388c3.257,0.476,10.459-.217,17.423-0.894,14.284-1.38,29.058-2.818,37.5,1.586a6.766,6.766,0,0,1-6.25,12c-4.9-2.549-19.977-1.079-29.944-.116C952.079,968.095,946.649,968.618,942.252,968.618Z" style="fill:#fff"/></svg>