<svg xmlns="http://www.w3.org/2000/svg" viewBox="0 0 200 60"><title>AP-Logo</title><path d="M21,57.037c-0.234-1.087-.454-2.177-0.675-3.267s-0.407-2.186-.612-3.28-0.369-2.194-.55-3.291-0.352-2.2-.513-3.3C18,39.5,17.416,35.074,16.813,30.642l-0.459-3.325L15.88,23.989l-0.507-3.327-0.551-3.324-0.6-3.318-0.653-3.311-0.713-3.3L12.083,4.123V4.115A1.273,1.273,0,0,0,11.1,3.09,1.224,1.224,0,0,0,9.568,4.157h0a28.4,28.4,0,0,0-.722,3.236C8.66,8.47,8.41,9.548,8.245,10.624s-0.376,2.153-.531,3.23L7.222,17.082Q6.748,20.309,6.3,23.536l-0.883,6.45-0.88,6.443q-0.442,3.219-.913,6.428l-0.488,3.2L2.605,49.244,2.313,50.823l-0.151.789-0.175.756c-0.12.506-.236,1-0.377,1.509q-0.236.778-.5,1.55L1.1,55.452a1.631,1.631,0,0,0-.053.2,1.613,1.613,0,0,0,3.167.613q0.155-.8.334-1.594c0.115-.542.2-1.117,0.313-1.67l0.161-.835,0.139-.812,0.288-1.622L5.972,46.5l0.476-3.232q0.453-3.231.883-6.459l0.847-6.454,0.384-2.925,5.315,1.7L14.125,31c0.575,4.424,1.133,8.864,1.765,13.3l0.476,3.328c0.163,1.109.317,2.219,0.5,3.327s0.318,2.221.5,3.329,0.34,2.219.5,3.331c0.005,0.037.012,0.078,0.02,0.115A1.6,1.6,0,0,0,21,57.055ZM9.024,23.907q0.428-3.221.883-6.433c0.149-1.071.319-2.137,0.479-3.206,0.154-1.048.335-2.086,0.5-3.13l0.028,0.125,0.661,3.259,0.6,3.274,0.542,3.286,0.5,3.3,0.226,1.6-4.51-1.381ZM43.511,56.465v0.018a1.529,1.529,0,1,1-3.053.183c0-.033,0-0.07,0-0.1l0-.589c0.006-.384,0-0.947,0-1.664-0.011-1.429-.027-3.471-0.047-5.921,0-2.446,0-5.3.025-8.353s0.055-6.307.084-9.562c0.014-1.79.027-3.579,0.037-5.335Q39.3,22.467,38.011,19.8q-1.375-2.84-2.788-5.659L33.8,11.334l-0.725-1.4c-0.245-.462-0.483-0.93-0.734-1.388L31.724,7.417,31.708,9.1c-0.014,1.109,0,2.219,0,3.329s0.013,2.22.028,3.33q0.045,3.331.132,6.665L32.044,29.1l0.173,6.686c0.052,2.231.091,4.465,0.105,6.7,0.015,1.118.006,2.238,0,3.358S32.3,48.084,32.286,49.2s-0.051,2.253-.063,3.38c0,0.566-.025,1.116-0.036,1.675s-0.017,1.114-.013,1.672a1.612,1.612,0,0,1-3.223.027,1.63,1.63,0,0,1,.009-0.184l0-.013c0.118-1.107.216-2.223,0.289-3.325,0.054-1.1.115-2.191,0.142-3.3s0.053-2.21.053-3.318,0.019-2.214.008-3.323c-0.005-2.217-.036-4.436-0.079-6.658l-0.148-6.672-0.154-6.684c-0.047-2.229-.09-4.461-0.111-6.694l-0.039-3.35c0-1.117-.036-2.234-0.026-3.352L28.885,5.735,28.872,2.38h0l0.068-.028A1.448,1.448,0,0,1,30.416.987a1.4,1.4,0,0,1,1.153.65c0.291,0.464.6,0.928,0.875,1.393l0.817,1.4,0.784,1.4L34.8,7.23c0.256,0.468.5,0.94,0.745,1.409l0.734,1.412,1.441,2.834q1.423,2.84,2.806,5.7l0.055,0.114c0-2.206,0-4.269-.006-6.1,0-1.219-.017-2.333-0.037-3.32s-0.041-1.848-.069-2.56c-0.053-1.423-.105-2.236-0.105-2.236a1.53,1.53,0,1,1,3.054-.2c0,0.049,0,.1,0,0.148,0,0-.026.814-0.034,2.238s-0.01,3.473,0,5.915c0.016,3.413,0,7.617-.026,12.058a1.387,1.387,0,0,1,0,.547c-0.012,1.748-.025,3.528-0.04,5.308C43.277,37,43.253,43.5,43.289,48.372c0.021,2.433.053,4.458,0.1,5.873,0.032,0.707.057,1.262,0.083,1.64ZM91.086,2.888a1.735,1.735,0,0,1,0,.291s-0.015.206-.028,0.592-0.035.952-.045,1.672-0.01,1.6-.02,2.6,0.006,2.141.009,3.378c0.008,4.946-.058,11.534-0.135,18.114-0.027,3.289-.054,6.578-0.079,9.661s-0.022,5.955-.016,8.417c0.009,1.23.018,2.358,0.038,3.356s0,1.867.014,2.583c0.046,1.429.047,2.245,0.047,2.245v0.005a1.422,1.422,0,1,1-2.84.136c0-.014.01-0.034,0.01-0.048s-0.006-.828-0.026-2.278c-0.008-.723-0.015-1.6-0.027-2.609s-0.011-2.141-.018-3.379c0-2.474,0-5.359.021-8.446s0.055-6.377.084-9.669c0.013-1.6.024-3.2,0.033-4.774Q85.5,19.857,82.8,15.013q-1.4-2.5-2.832-4.961C79.8,9.765,79.628,9.484,79.459,9.2c-0.009.594-.017,1.187-0.027,1.781-0.021,1.08-.023,2.162-0.03,3.243s-0.011,2.162,0,3.244c0.006,2.163.034,4.327,0.069,6.492l0.126,6.5,0.132,6.513c0.04,2.173.068,4.35,0.072,6.53,0.009,1.089,0,2.181-.01,3.272s-0.036,2.184-.053,3.275l-0.094,3.291c-0.035,1.091-.081,2.17-0.1,3.257a1.529,1.529,0,0,1-1.562,1.495,1.378,1.378,0,0,1-1.3-1.562c0-.029.2-0.057,0.2-0.085V56.432c0-1.08-.022-2.167.039-3.243,0.041-1.072.007-2.137,0.028-3.215s0.01-2.153.013-3.232,0-2.157,0-3.237c0-2.159-.031-4.322-0.064-6.487l-0.118-6.5L76.659,24c-0.028-2.173-.051-4.349-0.05-6.525q-0.005-1.632.005-3.265c0.006-1.089.011-2.177,0.032-3.266s0.033-2.053.063-3.141L76.842,4.66h0.033V4.4a1.34,1.34,0,0,1,2.48-.72l0.789,1.236,0.763,1.238c0.5,0.828.994,1.656,1.477,2.488q1.456,2.494,2.857,5.007,1.464,2.617,2.9,5.247c0.006-2.718,0-5.254-.01-7.458C88.121,10.2,88.113,9.075,88.1,8.078S88.064,6.21,88.017,5.49s-0.067-1.284-.1-1.67S87.873,3.23,87.873,3.23A1.615,1.615,0,1,1,91.086,2.888ZM66.813,11.221c-0.138-1.128-.306-2.19-0.522-3.183a14.977,14.977,0,0,0-.837-2.77,6.38,6.38,0,0,0-1.5-2.247A4.3,4.3,0,0,0,62.905,2.3a4.032,4.032,0,0,0-.52-0.211,3.725,3.725,0,0,0-.47-0.135,6.179,6.179,0,0,0-1.248-.144H60.225l-0.332.015c-0.042,0-.143.011-0.246,0.024l-0.338.046a4.889,4.889,0,0,0-2.6,1.363,7.093,7.093,0,0,0-1.436,2.2,21.091,21.091,0,0,0-1.321,5.985c-0.237,2.263-.323,4.8-0.385,7.514L53.32,27.719c-0.079,3.121-.141,6.424-0.084,9.854,0.028,1.714.08,3.459,0.178,5.226a52.83,52.83,0,0,0,.54,5.428c0.142,0.915.317,1.835,0.539,2.761a19.41,19.41,0,0,0,.873,2.8,11.3,11.3,0,0,0,.678,1.409,7.1,7.1,0,0,0,1,1.393,4.879,4.879,0,0,0,1.624,1.174,4.73,4.73,0,0,0,.523.184c0.182,0.042.366,0.088,0.549,0.112s0.356,0.03.568,0.035l0.351-.008A6.925,6.925,0,0,0,61.548,58a4.616,4.616,0,0,0,.979-0.264,4.261,4.261,0,0,0,1.695-1.227,8.306,8.306,0,0,0,1.471-2.966,22.5,22.5,0,0,0,.633-2.819c0.152-.925.272-1.84,0.366-2.747,0.374-3.629.518-7.158,0.634-10.575,0.1-3.416.13-6.706,0.15-9.834s-0.021-6.091-.115-8.827S67.095,13.478,66.813,11.221Zm-2.3,26.1c-0.094,3.37-.243,6.86-0.683,10.317a28.389,28.389,0,0,1-1.011,5A8.774,8.774,0,0,1,62.4,53.7a3.885,3.885,0,0,1-.5.787,1.121,1.121,0,0,1-.489.338,1.545,1.545,0,0,1-.333.074,3.9,3.9,0,0,1-.467.03H60.276a0.34,0.34,0,0,0-.109-0.013c-0.04-.006-0.075-0.024-0.114-0.028s-0.075-.036-0.115-0.045a1.766,1.766,0,0,1-.537-0.432,4.276,4.276,0,0,1-.566-0.81,8.14,8.14,0,0,1-.489-1.032,23.565,23.565,0,0,1-1.258-4.85,49.718,49.718,0,0,1-.555-5.108c-0.111-1.722-.178-3.428-0.221-5.108-0.087-3.361-.057-6.623-0.007-9.726l0.168-8.772c0.035-2.716.095-5.163,0.3-7.294a17.716,17.716,0,0,1,1.079-5.148,4.334,4.334,0,0,1,.845-1.333,2.063,2.063,0,0,1,.78-0.5,2.155,2.155,0,0,1,.321-0.088c0.038,0,.073-0.009.105-0.015a0.471,0.471,0,0,1,.12-0.015L60.3,4.6a4.184,4.184,0,0,1,.949.1,1.278,1.278,0,0,1,.665.419,2.837,2.837,0,0,1,.362.512,8.207,8.207,0,0,1,.369.8,22.7,22.7,0,0,1,1.149,5.168c0.277,2.123.448,4.575,0.582,7.26s0.194,5.6.218,8.713S64.6,33.951,64.514,37.323ZM113.15,4.814l-0.011.039c-0.117.427-.245,0.843-0.354,1.28s-0.226.865-.332,1.305c-0.217.874-.422,1.759-0.627,2.647-0.41,1.775-.813,3.562-1.24,5.35-0.212.894-.436,1.789-0.662,2.684s-0.472,1.79-.729,2.684c-0.126.447-.268,0.894-0.4,1.341s-0.291.893-.436,1.34-0.322.892-.482,1.338c-0.133.35-.281,0.7-0.427,1.048,0,0.636-.006,2.32-0.011,4.6-0.007,2.929.011,6.835,0.036,10.739s0.093,7.807.191,10.707c0.03,0.725.071,1.383,0.109,1.962s0.108,1.067.161,1.458,0.126,0.673.172,0.867l0.081,0.3,0.005,0.019a1.613,1.613,0,1,1-3.112.851,1.765,1.765,0,0,1-.044-0.226s-0.016-.137-0.048-0.393-0.064-.635-0.095-1.1c-0.012-.227-0.021-0.478-0.036-0.752s0-.557-0.019-0.864c-0.022-.61-0.017-1.294-0.031-2.034-0.071-2.958-.011-6.869-0.012-10.781-0.018-7.818.077-15.636,0.077-15.636v0.07h-0.15a0.711,0.711,0,0,1-.107-0.244,1.966,1.966,0,0,0-.036-0.268l-0.131-.658c-0.1-.441-0.211-0.9-0.316-1.353-0.233-.91-0.464-1.824-0.721-2.736l-0.774-2.736-0.8-2.734-1.66-5.455c-0.565-1.815-1.094-3.643-1.828-5.4a1.616,1.616,0,0,1,2.983-1.246,1.726,1.726,0,0,1,.092.3c0.387,1.879.966,3.694,1.5,5.526l1.593,5.5,0.789,2.754,0.771,2.765c0.085,0.313.169,0.631,0.254,0.945,0.059-.194.117-0.388,0.173-0.584,0.248-.862.481-1.732,0.708-2.606s0.441-1.755.65-2.638c0.422-1.766.823-3.544,1.235-5.33s0.828-3.577,1.358-5.4A1.4,1.4,0,0,1,113.15,4.814Zm19.659,13.391c-0.015-.412-0.015-0.822-0.042-1.236l-0.089-1.24c-0.024-.413-0.093-0.828-0.138-1.242l-0.076-.621-0.111-.622c-0.079-.415-0.134-0.829-0.247-1.243s-0.186-.828-0.32-1.24-0.25-.824-0.41-1.231-0.316-.815-0.521-1.212l-0.311-.594-0.157-.3L130.2,7.141l-0.379-.57a6.548,6.548,0,0,0-.435-0.543c-0.155-.175-0.291-0.362-0.464-0.525l-0.52-.488a4.064,4.064,0,0,0-.564-0.445c-0.2-.136-0.389-0.286-0.6-0.406a7.852,7.852,0,0,0-1.32-.607c-0.23-.075-0.457-0.167-0.69-0.221l-0.7-.142a3.973,3.973,0,0,0-.7-0.024l-0.7.017h0A1.1,1.1,0,0,0,121.733,4.3l-0.008.047c-0.108,1.1-.208,2.186-0.236,3.279-0.044,1.095-.053,2.174-0.056,3.259s0.011,2.16.042,3.235l0.093,3.217c0.065,2.14.125,4.27,0.147,6.4,0.011,1.064.014,2.108,0,3.187L121.7,30.148c0.01,4.314.13,8.605,0.258,12.892l0.2,6.424c0.035,1.07.045,2.141,0.062,3.209,0,1.068,0,2.14-.047,3.213a1.687,1.687,0,0,0,.005.2,1.532,1.532,0,0,0,3.05-.279c-0.1-1.069-.153-2.139-0.214-3.212-0.041-1.073-.094-2.143-0.122-3.214L124.71,42.96c-0.065-2.428-.127-4.854-0.169-7.277a7.666,7.666,0,0,0,1.392-.28,7.183,7.183,0,0,0,2.6-1.422,8.912,8.912,0,0,0,1.828-2.192,12.732,12.732,0,0,0,1.123-2.444,23.567,23.567,0,0,0,1.071-4.978c0.094-.827.165-1.652,0.2-2.473,0.025-.412.034-0.82,0.049-1.232s0.018-.836.016-1.226c0-.206,0-0.382,0-0.612Zm-2.914,1.207c0,0.405-.017.778-0.028,1.16s-0.031.77-.058,1.153c-0.045.768-.119,1.528-0.213,2.281a20.627,20.627,0,0,1-.972,4.328,10.977,10.977,0,0,1-.874,1.881,5.9,5.9,0,0,1-1.192,1.477,4.478,4.478,0,0,1-1.527.905,5.324,5.324,0,0,1-.526.15c-0.007-.866-0.013-1.732-0.01-2.6l0.037-3.2c0.018-1.063.022-2.161,0.017-3.239-0.009-2.158-.058-4.311-0.11-6.453s-0.1-4.275-.127-6.392c-0.013-1.644.017-3.276,0.107-4.89a3.15,3.15,0,0,1,.58.172,5.107,5.107,0,0,1,.848.38c0.135,0.076.256,0.179,0.387,0.264a2.127,2.127,0,0,1,.373.29l0.353,0.325a4.353,4.353,0,0,1,.318.374,4.119,4.119,0,0,1,.306.391L127.858,8.6,128,8.816l0.117,0.234,0.236,0.467c0.158,0.311.267,0.659,0.406,0.985s0.216,0.693.328,1.038,0.171,0.718.26,1.075,0.136,0.733.2,1.1l0.091,0.554,0.06,0.564c0.034,0.378.093,0.749,0.109,1.131l0.065,1.142c0.02,0.381.014,0.767,0.022,1.15l0.009,0.575C129.9,19,129.9,19.221,129.894,19.412Zm27.377,26.151c0.007,0.439.008,0.88,0,1.325a22.345,22.345,0,0,1-.211,2.695,16.283,16.283,0,0,1-.6,2.743,10.713,10.713,0,0,1-1.271,2.717,6.778,6.778,0,0,1-2.429,2.24,5.884,5.884,0,0,1-1.622.561,6.489,6.489,0,0,1-.873.108l-0.324.008h-0.04c-0.123,0-.062,0-0.1,0l-0.1,0-0.2-.006a5.971,5.971,0,0,1-1.674-.3,4.792,4.792,0,0,1-1.591-.917,5.76,5.76,0,0,1-1.1-1.318,8.8,8.8,0,0,1-.681-1.387,22.377,22.377,0,0,1-1.166-5.358c-0.4-3.476-.422-6.876-0.5-10.088s-0.215-6.353-.315-9.321-0.193-5.776-.262-8.369-0.119-4.971-.151-7.079-0.071-3.945-.112-5.461-0.1-2.7-.142-3.511S141.725,3.6,141.725,3.6a1.613,1.613,0,1,1,3.217-.255,1.753,1.753,0,0,1,0,.247s-0.032.432-.066,1.241-0.087,2-.109,3.5-0.024,3.336.015,5.435,0.081,4.468.144,7.051c0.131,5.17.353,11.191,0.588,17.679,0.059,1.622.086,3.28,0.166,4.907s0.191,3.3.393,4.928a19.854,19.854,0,0,0,1.024,4.64,4.022,4.022,0,0,0,1.008,1.578,1.882,1.882,0,0,0,.64.357,3.143,3.143,0,0,0,.869.128l0.127-.18,0.063-.2h0l0.017,0.2,0.323,0.105a3.456,3.456,0,0,0,.408-0.026,2.908,2.908,0,0,0,.808-0.278,3.52,3.52,0,0,0,1.263-1.284,11.224,11.224,0,0,0,1.257-4.225c0.1-.777.15-1.567,0.182-2.361,0.015-.4.019-0.795,0.017-1.193l-0.024-1.223c-0.042-1.662-.081-3.315-0.1-4.941-0.035-3.246-.037-6.38-0.036-9.349s0-5.774-.019-8.361-0.052-4.955-.105-7.053-0.128-3.924-.2-5.426-0.367-2.681-.422-3.484a3.132,3.132,0,0,0-.3-1.231V4.522A1.762,1.762,0,0,1,154.5,2.884,1.63,1.63,0,0,1,156.244,4.3c0,0.026.057,0.056,0.057,0.081,0,0,.063,1.735.125,4.771s0.142,7.354.233,12.546c0.042,2.592.088,5.4,0.159,8.362s0.141,6.087.248,9.313q0.08,2.42.164,4.913C157.244,44.707,157.258,45.135,157.271,45.563Zm20.286,2.367a16.313,16.313,0,0,1-.686,7.239,7.175,7.175,0,0,1-.964,1.743,5.447,5.447,0,0,1-1.579,1.4,5.15,5.15,0,0,1-1.96.656,5.87,5.87,0,0,1-.978.041,4.9,4.9,0,0,1-.521-0.051,4.258,4.258,0,0,1-.519-0.113,4.58,4.58,0,0,1-1.755-.963,6.168,6.168,0,0,1-1.108-1.305,9.936,9.936,0,0,1-1.121-2.56,17.54,17.54,0,0,1-.656-4.169,18.193,18.193,0,0,1,.084-2.717c0.073-.639.154-0.994,0.154-0.994l0.019-.081a1.448,1.448,0,1,1,2.823.645l-0.008.035a7.313,7.313,0,0,0-.129.743,12.77,12.77,0,0,0-.088,2.251,13.7,13.7,0,0,0,.567,3.447,6.608,6.608,0,0,0,.824,1.763,2.763,2.763,0,0,0,.581.628,1.5,1.5,0,0,0,.609.29,1.184,1.184,0,0,0,.16.024,0.269,0.269,0,0,0,.057-0.11,0.277,0.277,0,0,1,.031-0.111h0.088a2.325,2.325,0,0,0,.438.071A2.216,2.216,0,0,0,172.7,55.5a3.141,3.141,0,0,0,1.2-1.544,9.279,9.279,0,0,0,.59-2.675,20.975,20.975,0,0,0,.048-3.139,41.711,41.711,0,0,0-.982-6.776c-0.257-1.151-.536-2.317-0.863-3.467l-1.015-3.516-2.012-7.049c-0.653-2.332-1.272-4.639-1.824-6.9s-1.026-4.455-1.354-6.627l-0.109-.776c-0.04-.291-0.069-0.538-0.1-0.808q-0.09-.793-0.14-1.579A17.292,17.292,0,0,1,166.2,7.5a6.975,6.975,0,0,1,1.087-3.149,4.936,4.936,0,0,1,1.234-1.244c0.054-.04.124-0.085,0.19-0.127s0.142-.09.174-0.107l0.161-.092,0.211-.105a3.937,3.937,0,0,1,.87-0.29,4.481,4.481,0,0,1,3.046.483,5.756,5.756,0,0,1,1.809,1.561,6.732,6.732,0,0,1,.9,1.575,7.851,7.851,0,0,1,.39,1.227c0.077,0.317.133,0.66,0.147,0.774l0.031,0.223a1.448,1.448,0,0,1-2.861.445l-0.038-.222-0.021-.123L173.5,8.222c-0.017-.076-0.036-0.165-0.069-0.279a4.612,4.612,0,0,0-.813-1.668,2.758,2.758,0,0,0-.868-0.732,1.542,1.542,0,0,0-1-.177,0.891,0.891,0,0,0-.206.069l-0.044.021h0l-0.032.018-0.063.037a0.608,0.608,0,0,0-.076.048c-0.017.012-.031,0.018-0.056,0.038a1.868,1.868,0,0,0-.477.486,4.188,4.188,0,0,0-.583,1.8,14.369,14.369,0,0,0-.057,2.582c0.025,0.465.064,0.943,0.116,1.431l0.084,0.726,0.1,0.777c0.287,1.994.708,4.156,1.219,6.363s1.093,4.5,1.713,6.82,1.284,4.674,1.959,7.026l1.012,3.538c0.327,1.2.654,2.389,0.935,3.589A52.351,52.351,0,0,1,177.557,47.93Zm21.387,2.109-0.07.11v0.083l0.064,0.061,0.021,0.2-0.008.388a11.52,11.52,0,0,1-.719,3.386c-0.056.137-.107,0.274-0.163,0.41s-0.133.27-.2,0.4a7.4,7.4,0,0,1-.469.784,5.794,5.794,0,0,1-1.307,1.348,5.981,5.981,0,0,1-.8.5,6.653,6.653,0,0,1-.844.336,5.378,5.378,0,0,1-.841.2c-0.138.022-.276,0.045-0.413,0.061l-0.4.018-0.2.173-0.1.169H192.48l-0.094-.167-0.038-.085c-0.1-.006-0.2-0.053-0.3-0.059-0.079,0-.248-0.044-0.39-0.063s-0.295-.049-0.425-0.077a6.267,6.267,0,0,1-1.429-.483,6.705,6.705,0,0,1-2.124-1.6,7.915,7.915,0,0,1-1.2-1.77,13.726,13.726,0,0,1-.99-2.64l-0.231-.939a1.613,1.613,0,1,1,3.167-.585l0.006,0.054s0.031,0.263.108,0.756a7.607,7.607,0,0,0,.657,1.944,4.012,4.012,0,0,0,1.91,1.918,3.223,3.223,0,0,0,.723.209c0.06,0.012.1-.008,0.156,0a0.608,0.608,0,0,1,.2-0.18c0.088,0,.177-0.229.267-0.229h0.017l0.014,0.236,0.055,0.151,0.11,0.032a2.712,2.712,0,0,0,1.538-.483,2.919,2.919,0,0,0,.618-0.6,4.138,4.138,0,0,0,.269-0.423l0.128-.232,0.112-.259a9.308,9.308,0,0,0,.6-2.465l0.041-.386,0.02-.194,0.006-.138c0.006-.231.036-0.455,0.026-0.7,0-.475-0.02-0.969-0.06-1.473a28.031,28.031,0,0,0-.465-3.127,59.354,59.354,0,0,0-1.821-6.559c-0.741-2.22-1.543-4.472-2.4-6.713s-1.715-4.49-2.54-6.73c-0.411-1.121-.809-2.242-1.18-3.368-0.188-.566-0.361-1.119-0.528-1.707-0.085-.294-0.167-0.584-0.235-0.853l-0.107-.412-0.1-.446c-0.128-.57-0.266-1.131-0.364-1.7l-0.159-.847-0.124-.851c-0.093-.56-0.13-1.135-0.19-1.693-0.021-.283-0.025-0.568-0.037-0.849s-0.014-.563,0-0.846a16.879,16.879,0,0,1,.107-1.686l0.147-.841c0.055-.279.141-0.56,0.211-0.835s0.195-.555.292-0.826,0.261-.543.393-0.807a8.2,8.2,0,0,1,.527-0.765,4.883,4.883,0,0,1,.68-0.679c0.129-.1.252-0.2,0.387-0.3,0.163-.1.33-0.192,0.5-0.278l0.25-.122,0.155-.054,0.307-.108c-0.02.005,0.231-.071,0.138-0.041l0.027-.005,0.054-.011,0.108-.021,0.215-.04c0.144-.023.283-0.056,0.429-0.066a6.029,6.029,0,0,1,.877,0,4.489,4.489,0,0,1,.851.162,3.881,3.881,0,0,1,.783.3l0.362,0.185c0.114,0.067.217,0.145,0.324,0.218l0.312,0.224c0.1,0.08.181,0.164,0.271,0.246a4.125,4.125,0,0,1,.487.506,5.26,5.26,0,0,1,.405.52l0.339,0.521L195.9,6.938c0.183,0.336.3,0.669,0.432,0.984,0.1,0.318.209,0.622,0.287,0.911s0.14,0.565.195,0.824l0.126,0.728c0.068,0.456.1,0.879,0.132,1.19l0.047,0.864a1.529,1.529,0,0,1-3.054.167c0-.035,0-0.076,0-0.111l0.015-.865c-0.013-.25-0.019-0.523-0.049-0.878l-0.07-.574-0.126-.634c-0.051-.22-0.124-0.441-0.187-0.681-0.092-.219-0.16-0.472-0.277-0.7a4.056,4.056,0,0,0-.871-1.255,2.038,2.038,0,0,0-1.243-.606c-0.116-.02-0.245.012-0.369,0a1.957,1.957,0,0,0-.2.039l-0.1.019-0.051.009-0.017,0-0.228.084-0.154.057c-0.018.015-.025,0.028-0.038,0.039a0.241,0.241,0,0,1-.081.051c-0.042.038-.089,0.086-0.136,0.125A3.362,3.362,0,0,0,189,8.455a10.709,10.709,0,0,0-.268,2.6,27.915,27.915,0,0,0,.781,6.076l0.083,0.38,0.1,0.412c0.069,0.282.141,0.542,0.213,0.8s0.148,0.524.23,0.793,0.159,0.539.244,0.81c0.336,1.084.7,2.184,1.088,3.293,0.77,2.219,1.6,4.474,2.415,6.743s1.641,4.545,2.381,6.823,1.44,4.543,1.957,6.816a30.861,30.861,0,0,1,.641,3.419c0.067,0.577.088,1.154,0.107,1.739C199,49.444,198.943,49.746,198.945,50.039Z" style="fill:#fff"/></svg>